<?xml version="1.0" encoding="UTF-8" standalone="no"?>
<svg
   xmlns:dc="http://purl.org/dc/elements/1.1/"
   xmlns:cc="http://creativecommons.org/ns#"
   xmlns:rdf="http://www.w3.org/1999/02/22-rdf-syntax-ns#"
   xmlns:svg="http://www.w3.org/2000/svg"
   xmlns="http://www.w3.org/2000/svg"
   viewBox="0 0 1440 1440"
   height="1440"
   width="1440"
   xml:space="preserve"
   id="svg2"
   version="1.1"><metadata
     id="metadata8"><rdf:RDF><cc:Work
         rdf:about=""><dc:format>image/svg+xml</dc:format><dc:type
           rdf:resource="http://purl.org/dc/dcmitype/StillImage" /></cc:Work></rdf:RDF></metadata><defs
     id="defs6"><clipPath
       id="clipPath18"
       clipPathUnits="userSpaceOnUse"><path
         id="path16"
         d="M 0,1080 H 1080 V 0 H 0 Z" /></clipPath></defs><g
     transform="matrix(1.3333333,0,0,-1.3333333,0,1440)"
     id="g10"><g
       id="g12"><g
         clip-path="url(#clipPath18)"
         id="g14"><g
           transform="translate(290.5625,798.0434)"
           id="g20"><path
             id="path22"
             style="fill:#304d3b;fill-opacity:1;fill-rule:nonzero;stroke:none"
             d="M 0,0 248.081,-729.208 502.74,7.518 H 375.88 c 0,0 -36.648,113.704 -131.558,98.669 0,0 -90.211,1.879 -116.523,-104.307 C 127.799,1.88 0,1.88 0,0" /></g><g
           transform="translate(486.834,1014.9898)"
           id="g24"><path
             id="path26"
             style="fill:#ffffff;fill-opacity:1;fill-rule:nonzero;stroke:none"
             d="M 0,0 39.686,2.26 54.664,38.037 69.638,2.26 107.997,0.132 79.232,-25.5 88.822,-62.339 55.258,-41.528 21.035,-62.904 31.301,-25.5 Z" /></g><g
           transform="translate(359.8406,978.7211)"
           id="g28"><path
             id="path30"
             style="fill:#ffffff;fill-opacity:1;fill-rule:nonzero;stroke:none"
             d="M 0,0 39.686,2.26 54.664,38.037 69.638,2.26 107.997,0.132 79.232,-25.5 88.822,-62.339 55.258,-41.528 21.035,-62.904 31.3,-25.5 Z" /></g><g
           transform="translate(609.0217,978.7211)"
           id="g32"><path
             id="path34"
             style="fill:#ffffff;fill-opacity:1;fill-rule:nonzero;stroke:none"
             d="M 0,0 39.686,2.26 54.664,38.037 69.638,2.26 107.997,0.132 79.232,-25.5 88.822,-62.339 55.258,-41.528 21.035,-62.904 31.3,-25.5 Z" /></g><g
           transform="translate(250.9547,901.9302)"
           id="g36"><path
             id="path38"
             style="fill:#ffffff;fill-opacity:1;fill-rule:nonzero;stroke:none"
             d="M 0,0 39.686,2.26 54.664,38.036 69.638,2.26 107.997,0.132 79.232,-25.5 88.822,-62.339 55.258,-41.528 21.035,-62.904 31.301,-25.5 Z" /></g><g
           transform="translate(721.0486,901.9302)"
           id="g40"><path
             id="path42"
             style="fill:#ffffff;fill-opacity:1;fill-rule:nonzero;stroke:none"
             d="M 0,0 39.686,2.26 54.664,38.036 69.638,2.26 107.997,0.132 79.232,-25.5 88.822,-62.339 55.258,-41.528 21.035,-62.904 31.3,-25.5 Z" /></g><g
           transform="translate(540.4853,102.2741)"
           id="g44"><path
             id="path46"
             style="fill:#ffffff;fill-opacity:1;fill-rule:evenodd;stroke:none"
             d="m 0,0 -230.415,684.26 123.669,0.119 c 1.661,67.033 54.622,104.272 106.746,104.272 52.967,0 105.938,-37.239 107.588,-104.272 l 123.693,-0.063 z M 130.746,712.519 C 120.831,775.407 61.246,816.799 0,817.616 c -52.954,0 -106.746,-29.795 -131.559,-105.097 H -268.112 L 2.497,-75.301 268.961,712.519 Z" /></g><g
           transform="translate(604.2038,838.7884)"
           id="g48"><path
             id="path50"
             style="fill:#ffffff;fill-opacity:1;fill-rule:evenodd;stroke:none"
             d="m 0,0 h -13.231 l -2.479,-10.764 c -4.146,-2.479 -9.109,-0.818 -14.885,1.661 -30.627,14.067 -56.282,10.764 -77.799,-4.14 -24.014,-19.861 -29.801,-49.645 -22.352,-86.89 5.806,-22.352 40.559,-44.694 76.143,-63.731 39.712,-19.855 24.008,-76.956 -12.419,-71.174 -32.269,1.66 -47.173,33.105 -57.099,73.672 h -12.42 v -90.206 h 13.25 l 3.303,10.752 c 4.145,0 7.455,0 11.594,-2.473 26.475,-10.752 52.137,-12.425 77.799,-1.66 47.984,20.692 52.948,93.502 11.569,130.747 -23.995,23.178 -86.895,30.62 -77.786,75.307 19.032,42.215 67.859,25.656 85.23,-42.203 l 11.582,0 z" /></g><g
           transform="translate(442.8434,741.1348)"
           id="g52"><path
             id="path54"
             style="fill:#ffffff;fill-opacity:1;fill-rule:evenodd;stroke:none"
             d="m 0,0 h -101.788 v -9.104 c 16.547,-4.127 26.481,-13.249 29.797,-25.643 l 146.474,-451.845 20.686,71.168 24.826,-70.349 148.129,454.329 c 6.613,10.764 16.547,17.377 28.135,20.692 V 0.837 H 194.478 v -11.589 c 20.686,-1.655 30.614,-8.286 28.135,-20.692 L 122.48,-339.286 95.169,-271.421 74.483,-342.595 -27.318,-39.718 c -2.466,25.651 11.59,28.966 27.318,28.13 z" /></g></g></g></g></svg>