<?xml version="1.0" encoding="UTF-8" standalone="no"?>
<!-- Created with Inkscape (http://www.inkscape.org/) -->

<svg
   version="1.1"
   id="svg2"
   width="1440"
   height="1440"
   viewBox="0 0 1440 1440"
   sodipodi:docname="Santiago Morning.ai"
   xmlns:inkscape="http://www.inkscape.org/namespaces/inkscape"
   xmlns:sodipodi="http://sodipodi.sourceforge.net/DTD/sodipodi-0.dtd"
   xmlns="http://www.w3.org/2000/svg"
   xmlns:svg="http://www.w3.org/2000/svg">
  <defs
     id="defs6">
    <clipPath
       clipPathUnits="userSpaceOnUse"
       id="clipPath16">
      <path
         d="M 0,1080 H 1080 V 0 H 0 Z"
         id="path14" />
    </clipPath>
  </defs>
  <sodipodi:namedview
     id="namedview4"
     pagecolor="#ffffff"
     bordercolor="#000000"
     borderopacity="0.25"
     inkscape:showpageshadow="2"
     inkscape:pageopacity="0.0"
     inkscape:pagecheckerboard="0"
     inkscape:deskcolor="#d1d1d1" />
  <g
     id="g8"
     inkscape:groupmode="layer"
     inkscape:label="Santiago Morning"
     transform="matrix(1.3333333,0,0,-1.3333333,0,1440)">
    <g
       id="g10">
      <g
         id="g12"
         clip-path="url(#clipPath16)">
        <g
           id="g18"
           transform="translate(315.0564,1028.3752)">
          <path
             d="m 0,0 c 75.099,-245.832 149.64,-489.839 224.18,-733.844 1.055,0.24 2.11,0.479 3.165,0.717 C 301.865,-489.119 376.384,-245.111 451.24,0 Z m -49.623,-779.953 v 631.533 h 77.42 c -3.808,12.255 -7.008,22.548 -10.023,32.255 h -94.375 v -675.898 c 100.216,-60.763 200.343,-121.473 300.68,-182.309 101.934,61.916 202.899,123.242 303.644,184.436 v 673.65 h -94.552 c -3.077,-10.306 -6.051,-20.267 -9.611,-32.187 h 75.742 V -779.451 C 408.276,-834.025 316.52,-889.039 225.015,-943.901 132.624,-888.747 41.518,-834.36 -49.623,-779.953 m 15.897,10.063 c 85.949,-51.312 172.223,-102.821 258.749,-154.477 86.274,51.75 172.001,103.174 256.92,154.11 v 604.103 h -63.987 c -63.59,-208.132 -127.208,-416.35 -190.826,-624.568 -0.967,-0.092 -1.932,-0.184 -2.898,-0.276 C 160.61,-582.78 96.989,-374.562 33.494,-166.754 h -67.22 z M -94.185,-99.532 H 13.46 C 1.632,-60.385 -9.719,-22.816 -21.591,16.476 H 472.833 C 461.254,-21.856 449.881,-59.506 437.911,-99.133 H 544.072 V -798.867 C 437.82,-863.397 331.025,-928.256 224.047,-993.226 117.335,-928.507 11.334,-864.218 -94.185,-800.221 Z"
             style="fill:#1e130f;fill-opacity:1;fill-rule:evenodd;stroke:none"
             id="path20" />
        </g>
        <g
           id="g22"
           transform="translate(281.3307,258.4852)">
          <path
             d="M 0,0 V 603.136 H 67.22 C 130.715,395.328 194.336,187.11 257.957,-21.108 c 0.967,0.092 1.932,0.184 2.898,0.276 63.619,208.218 127.236,416.436 190.827,624.568 h 63.987 V -0.367 C 430.75,-51.303 345.023,-102.727 258.749,-154.477 172.223,-102.821 85.948,-51.312 0,0"
             style="fill:#ffffff;fill-opacity:1;fill-rule:evenodd;stroke:none"
             id="path24" />
        </g>
        <g
           id="g26"
           transform="translate(265.4332,248.4226)">
          <path
             d="M 0,0 C 91.141,-54.408 182.248,-108.795 274.638,-163.948 366.143,-109.086 457.9,-54.073 548.925,0.502 V 631.48 h -75.742 c 3.56,11.92 6.534,21.881 9.611,32.187 h 94.553 V -9.983 C 476.601,-71.177 375.636,-132.503 273.702,-194.42 173.365,-133.583 73.238,-72.873 -26.978,-12.111 v 675.899 h 94.375 c 3.016,-9.707 6.215,-20 10.023,-32.255 H 0 Z"
             style="fill:#ffffff;fill-opacity:1;fill-rule:evenodd;stroke:none"
             id="path28" />
        </g>
        <g
           id="g30"
           transform="translate(539.7484,387.4257)">
          <path
             d="M 0,0 C 0.903,0.134 1.806,0.27 2.709,0.406 64.012,204.519 125.315,408.635 186.808,613.377 H -187.334 C -124.615,408.021 -62.307,204.01 0,0 m -224.692,640.95 h 451.24 C 151.692,395.838 77.173,151.831 2.653,-92.177 c -1.055,-0.239 -2.11,-0.478 -3.165,-0.717 -74.54,244.005 -149.08,488.011 -224.18,733.844"
             style="fill:#ffffff;fill-opacity:1;fill-rule:evenodd;stroke:none"
             id="path32" />
        </g>
        <g
           id="g34"
           transform="translate(486.1642,640.3765)">
          <path
             d="m 0,0 c 17.511,-61.59 34.667,-121.936 51.825,-182.281 1.044,-0.02 2.087,-0.04 3.131,-0.06 33.315,110.182 66.629,220.363 100.619,332.779 H -11.283 c -14.92,50.91 -29.424,100.393 -44.66,152.382 h 259.248 c 2.945,12.987 5.444,24.007 8.145,35.92 h -315.959 c 22.587,-74.999 44.81,-148.797 67.189,-223.115 H 107.779 C 89.729,56.569 72.14,-0.982 54.552,-58.534 53.667,-58.311 52.783,-58.088 51.9,-57.866 45.655,-38.383 39.408,-18.902 33.35,0 Z M 53.584,-252.951 C -8.723,-48.94 -71.031,155.07 -133.75,360.426 H 240.392 C 178.899,155.684 117.596,-48.431 56.293,-252.545 c -0.903,-0.136 -1.806,-0.271 -2.709,-0.406"
             style="fill:#1e130f;fill-opacity:1;fill-rule:evenodd;stroke:none"
             id="path36" />
        </g>
        <g
           id="g38"
           transform="translate(486.1642,640.3765)">
          <path
             d="m 0,0 h 33.35 c 6.058,-18.902 12.305,-38.383 18.55,-57.866 0.883,-0.222 1.767,-0.445 2.652,-0.668 17.588,57.552 35.177,115.103 53.227,174.159 H -37.32 c -22.379,74.318 -44.602,148.116 -67.189,223.115 H 211.45 c -2.701,-11.913 -5.2,-22.933 -8.145,-35.92 H -55.943 c 15.236,-51.989 29.74,-101.472 44.66,-152.382 H 155.575 C 121.585,38.022 88.271,-72.159 54.956,-182.341 c -1.044,0.02 -2.087,0.04 -3.131,0.06 C 34.667,-121.936 17.511,-61.59 0,0"
             style="fill:#ffffff;fill-opacity:1;fill-rule:evenodd;stroke:none"
             id="path40" />
        </g>
      </g>
    </g>
  </g>
</svg>
